<mxfile host="app.diagrams.net" modified="2024-06-01T16:21:31.318Z" agent="Mozilla/5.0 (Windows NT 10.0; Win64; x64) AppleWebKit/537.36 (KHTML, like Gecko) Chrome/125.0.0.0 Safari/537.36" etag="JiLRzxRiMRhJ3N4qdixP" version="24.4.13" type="device">
  <diagram name="Halaman-1" id="48HVC7noBNMsK2J3ccMk">
    <mxGraphModel dx="1489" dy="795" grid="1" gridSize="10" guides="1" tooltips="1" connect="1" arrows="1" fold="1" page="1" pageScale="1" pageWidth="827" pageHeight="1169" math="0" shadow="0">
      <root>
        <mxCell id="0" />
        <mxCell id="1" parent="0" />
        <mxCell id="zsL1hlBlLPGP7t83WGqp-1" value="sales" style="rounded=0;whiteSpace=wrap;html=1;" vertex="1" parent="1">
          <mxGeometry x="60" y="40" width="120" height="60" as="geometry" />
        </mxCell>
        <mxCell id="zsL1hlBlLPGP7t83WGqp-2" value="konsumen" style="rounded=0;whiteSpace=wrap;html=1;" vertex="1" parent="1">
          <mxGeometry x="208" y="40" width="120" height="60" as="geometry" />
        </mxCell>
        <mxCell id="zsL1hlBlLPGP7t83WGqp-3" value="profit" style="rounded=0;whiteSpace=wrap;html=1;" vertex="1" parent="1">
          <mxGeometry x="355" y="40" width="120" height="60" as="geometry" />
        </mxCell>
        <mxCell id="zsL1hlBlLPGP7t83WGqp-4" value="diskon" style="rounded=0;whiteSpace=wrap;html=1;" vertex="1" parent="1">
          <mxGeometry x="503" y="40" width="120" height="60" as="geometry" />
        </mxCell>
        <mxCell id="zsL1hlBlLPGP7t83WGqp-5" value="kuantitas" style="rounded=0;whiteSpace=wrap;html=1;" vertex="1" parent="1">
          <mxGeometry x="650" y="40" width="120" height="60" as="geometry" />
        </mxCell>
        <mxCell id="zsL1hlBlLPGP7t83WGqp-6" value="line chart revenue sales terhadap waktu" style="rounded=0;whiteSpace=wrap;html=1;" vertex="1" parent="1">
          <mxGeometry x="60" y="130" width="710" height="230" as="geometry" />
        </mxCell>
        <mxCell id="zsL1hlBlLPGP7t83WGqp-11" value="banyak transaksi per payment" style="rounded=0;whiteSpace=wrap;html=1;" vertex="1" parent="1">
          <mxGeometry x="60" y="390" width="350" height="150" as="geometry" />
        </mxCell>
        <mxCell id="zsL1hlBlLPGP7t83WGqp-12" value="value per payment" style="rounded=0;whiteSpace=wrap;html=1;" vertex="1" parent="1">
          <mxGeometry x="430" y="390" width="340" height="150" as="geometry" />
        </mxCell>
        <mxCell id="zsL1hlBlLPGP7t83WGqp-13" value="banyak transaksi per produk" style="rounded=0;whiteSpace=wrap;html=1;" vertex="1" parent="1">
          <mxGeometry x="60" y="570" width="350" height="150" as="geometry" />
        </mxCell>
        <mxCell id="zsL1hlBlLPGP7t83WGqp-14" value="value per produk" style="rounded=0;whiteSpace=wrap;html=1;" vertex="1" parent="1">
          <mxGeometry x="430" y="570" width="340" height="150" as="geometry" />
        </mxCell>
        <mxCell id="zsL1hlBlLPGP7t83WGqp-15" value="&lt;br&gt;&lt;span style=&quot;color: rgb(0, 0, 0); font-family: Helvetica; font-size: 12px; font-style: normal; font-variant-ligatures: normal; font-variant-caps: normal; font-weight: 400; letter-spacing: normal; orphans: 2; text-align: center; text-indent: 0px; text-transform: none; widows: 2; word-spacing: 0px; -webkit-text-stroke-width: 0px; white-space: normal; background-color: rgb(251, 251, 251); text-decoration-thickness: initial; text-decoration-style: initial; text-decoration-color: initial; display: inline !important; float: none;&quot;&gt;diskon per produk kategori&lt;/span&gt;" style="rounded=0;whiteSpace=wrap;html=1;" vertex="1" parent="1">
          <mxGeometry x="60" y="760" width="710" height="230" as="geometry" />
        </mxCell>
        <mxCell id="zsL1hlBlLPGP7t83WGqp-16" value="ringkasan produk" style="rounded=0;whiteSpace=wrap;html=1;" vertex="1" parent="1">
          <mxGeometry x="60" y="1020" width="710" height="230" as="geometry" />
        </mxCell>
        <mxCell id="zsL1hlBlLPGP7t83WGqp-17" value="ringkasan produk" style="rounded=0;whiteSpace=wrap;html=1;" vertex="1" parent="1">
          <mxGeometry x="60" y="1280" width="710" height="230" as="geometry" />
        </mxCell>
      </root>
    </mxGraphModel>
  </diagram>
</mxfile>
